{"title":"Edge of Tomorrow converted to MP4","uid":10373754,"size":1253079738,"categoryP":"video","categoryS":"movies","magnet":"?xt=urn:btih:0e8be0ddb9fbe6bec2525698e669567ccb416784&amp;dn=Edge+of+Tomorrow+converted+to+MP4&amp;tr=udp%3A%2F%2Ftracker.openbittorrent.com%3A80&amp;tr=udp%3A%2F%2Fopen.demonii.com%3A1337&amp;tr=udp%3A%2F%2Ftracker.coppersurfer.tk%3A6969&amp;tr=udp%3A%2F%2Fexodus.desync.com%3A6969","seeders":3,"leechers":0,"uploader":"Twiggles","files":1,"time":1402966901,"description":"An alien race has hit the Earth in an unrelenting assault, unbeatable by any military unit in the world. Major William Cage (Cruise) is an officer who has never seen a day of combat when he is unceremoniously dropped into what amounts to a suicide mission. Killed within minutes, Cage now finds himself inexplicably thrown into a time loop-forcing him to live out the same brutal combat over and over, fighting and dying again...and again. But with each battle, Cage becomes able to engage the adversaries with increasing skill, alongside Special Forces warrior Rita Vrataski (Blunt). And, as Cage and Vrataski take the fight to the aliens, each repeated encounter gets them one step closer to defeating the enemy.\n\nDirector: Doug Liman\nWriters: Christopher McQuarrie (screenplay), Jez Butterworth (screenplay)\nStars: Tom Cruise, Emily Blunt, Bill Paxton \nGenres: Action | Sci-Fi\nCountry: USA | Australia\nLanguage: English\n\n\n\nSource: 720p Italian/MiLLENiUM THX\n\nSimple conversion to MP4 format.  Good quality.\n\nFormat                                   : MPEG-4\nFormat profile                           : Base Media\nCodec ID                                 : isom\nFile size                                : 1.17 GiB\nDuration                                 : 1h 45mn\nOverall bit rate mode                    : Variable\nOverall bit rate                         : 1 582 Kbps\nEncoded date                             : UTC 2014-06-16 22:05:41\nTagged date                              : UTC 2014-06-16 22:05:41\nWriting application                      : Lavf51.12.1\n\nVideo\nID                                       : 1\nFormat                                   : MPEG-4 Visual\nFormat profile                           : Simple@L1\nFormat settings, BVOP                    : No\nFormat settings, QPel                    : No\nFormat settings, GMC                     : No warppoints\nFormat settings, Matrix                  : Default (H.263)\nCodec ID                                 : 20\nDuration                                 : 1h 45mn\nBit rate                                 : 1 425 Kbps\nWidth                                    : 720 pixels\nHeight                                   : 296 pixels\nDisplay aspect ratio                     : 2.40:1\nFrame rate mode                          : Constant\nFrame rate                               : 25.000 fps\nColor space                              : YUV\nChroma subsampling                       : 4:2:0\nBit depth                                : 8 bits\nScan type                                : Progressive\nCompression mode                         : Lossy\nBits/(Pixel*Frame)                       : 0.268\nStream size                              : 1.05 GiB (90%)\nWriting library                          : Lavc51.40.4\nEncoded date                             : UTC 2014-06-16 22:05:41\nTagged date                              : UTC 2014-06-16 22:05:41\n\nAudio\nID                                       : 2\nFormat                                   : AAC\nFormat/Info                              : Advanced Audio Codec\nFormat profile                           : LC\nCodec ID                                 : 40\nDuration                                 : 1h 45mn\nBit rate mode                            : Variable\nBit rate                                 : 152 Kbps\nChannel(s)                               : 2 channels\nChannel positions                        : Front: L R\nSampling rate                            : 44.1 KHz\nCompression mode                         : Lossy\nStream size                              : 115 MiB (10%)\nEncoded date                             : UTC 2014-06-16 22:05:41\nTagged date                              : UTC 2014-06-16 22:05:41\n\n","torrent":{"xt":"urn:btih:0e8be0ddb9fbe6bec2525698e669567ccb416784","amp;dn":"Edge+of+Tomorrow+converted+to+MP4","amp;tr":["udp%3A%2F%2Ftracker.openbittorrent.com%3A80","udp%3A%2F%2Fopen.demonii.com%3A1337","udp%3A%2F%2Ftracker.coppersurfer.tk%3A6969","udp%3A%2F%2Fexodus.desync.com%3A6969"],"infoHash":"0e8be0ddb9fbe6bec2525698e669567ccb416784","infoHashBuffer":{"type":"Buffer","data":[14,139,224,221,185,251,230,190,194,82,86,152,230,105,86,124,203,65,103,132]},"announce":[],"urlList":[]}}